<svg width="24" height="14" viewBox="0 0 24 14" fill="none" xmlns="http://www.w3.org/2000/svg">
    <rect x=".5" y=".5" width="23" height="13" rx="1.5" fill="#E5212D" stroke="#E5212D"/>
    <path d="M18.294 5.61 17.07 6.677l-.013.012 1.527 2.699a.26.26 0 0 1-.039.304l-.223.234-2.507-1.667.452-.718-.107-.071-1.107.964c-1.212 1.052-2.573 1.659-3.552 1.585-.395-.03-.701-.168-.909-.411-.577-.67-.24-2 .84-3.311l.126.084c-.571.793-.722 1.553-.382 1.94.134.157.325.246.567.264.6.046 1.445-.348 2.263-1.053l.305-.271-3.763-2.502.236-.205a.629.629 0 0 1 .61-.122L16.67 6.2l.145-.125-.024-.016c-.394-.261-.76-.74-.64-1.174l.899-.783c.269-.234.581-.404.928-.503a2.41 2.41 0 0 1 .863-.09c.277.022.508.101.59.2.047.058.14.231-.027.598-.168.371-.542.81-1.11 1.305zM4.5 9.895h1.512V6.836c0-.784.418-1.245 1.104-1.245.685 0 1.007.43 1.007 1.224v3.08h1.511V6.558c0-1.449-.836-2.372-2.165-2.372-.654 0-1.178.236-1.49.676v-.547H4.502v5.58H4.5z" fill="#fff"/>
</svg>
