<?xml version="1.0" encoding="UTF-8"?>
<svg xmlns="http://www.w3.org/2000/svg" xmlns:xlink="http://www.w3.org/1999/xlink" width="34pt" height="22pt" viewBox="0 0 34 22" version="1.1">
<g id="surface1">
<rect x="0" y="0" width="34" height="22" style="fill:rgb(0%,0%,60%);fill-opacity:1;stroke:none;"/>
<path style=" stroke:none;fill-rule:nonzero;fill:rgb(100%,100%,100%);fill-opacity:1;" d="M 20.898438 6.601562 C 19.898438 6.601562 18.601562 6.601562 18.398438 6.601562 C 18.199219 6.601562 18.199219 6.699219 18.199219 6.699219 L 11.199219 15.300781 C 11.101562 15.398438 11.199219 15.398438 11.199219 15.398438 C 11.398438 15.398438 12 15.398438 12.199219 15.398438 C 12.300781 15.398438 12.300781 15.398438 12.398438 15.300781 L 13.898438 13.398438 C 13.898438 13.398438 13.898438 13.398438 14 13.398438 L 16.5 13.398438 L 16.101562 15.300781 C 16.101562 15.300781 16.101562 15.398438 16.199219 15.398438 C 16.5 15.398438 18.898438 15.398438 19.199219 15.398438 C 19.300781 15.398438 19.300781 15.398438 19.300781 15.300781 L 20.898438 6.601562 C 20.898438 6.800781 20.898438 6.601562 20.898438 6.601562 Z M 16.601562 12.601562 L 14.601562 12.601562 L 17.199219 9.199219 C 17.199219 9.199219 17.199219 9.199219 17.300781 9.199219 Z M 16.601562 12.601562 "/>
<path style=" stroke:none;fill-rule:nonzero;fill:rgb(100%,100%,100%);fill-opacity:1;" d="M 4.398438 14.398438 C 4.398438 14.5 4.398438 14.601562 4.601562 14.699219 C 5 15 6 15.601562 7.699219 15.601562 C 10.699219 15.601562 11.800781 13.601562 11.398438 12 C 11.300781 11.601562 10.800781 9.300781 10.699219 9 C 10.5 8.101562 10.898438 7.398438 11.800781 7.398438 C 12.601562 7.398438 13.101562 7.699219 13.398438 7.898438 C 13.5 8 13.601562 8 13.601562 7.898438 C 13.601562 7.800781 13.800781 7.101562 13.800781 7.101562 C 13.800781 7.101562 13.898438 6.898438 13.601562 6.898438 C 13.300781 6.699219 12.699219 6.398438 11.199219 6.398438 C 8.5 6.398438 7.398438 8.101562 7.800781 10 C 8 10.601562 8.601562 12.800781 8.601562 13.300781 C 8.601562 13.5 8.699219 14.601562 7.300781 14.601562 C 6 14.601562 5.101562 13.699219 4.898438 13.398438 C 4.800781 13.300781 4.800781 13.398438 4.699219 13.5 C 4.699219 13.601562 4.398438 14.398438 4.398438 14.398438 Z M 4.398438 14.398438 "/>
<path style=" stroke:none;fill-rule:nonzero;fill:rgb(100%,100%,100%);fill-opacity:1;" d="M 20.300781 14.398438 C 20.300781 14.5 20.300781 14.601562 20.5 14.699219 C 20.898438 15 21.800781 15.601562 23.5 15.601562 C 26.5 15.601562 27.601562 13.601562 27.199219 12 C 27.101562 11.5 26.601562 9.300781 26.5 8.898438 C 26.300781 8 26.699219 7.300781 27.601562 7.300781 C 28.398438 7.300781 28.898438 7.601562 29.199219 7.800781 C 29.300781 7.898438 29.398438 7.898438 29.398438 7.800781 C 29.398438 7.699219 29.601562 7 29.601562 7 C 29.601562 7 29.699219 6.800781 29.398438 6.800781 C 29.101562 6.601562 28.5 6.300781 27 6.300781 C 24.300781 6.300781 23.199219 8 23.601562 9.898438 C 23.800781 10.5 24.398438 12.699219 24.398438 13.199219 C 24.398438 13.398438 24.5 14.5 23.101562 14.5 C 21.800781 14.5 21 13.601562 20.699219 13.300781 C 20.601562 13.199219 20.5 13.199219 20.5 13.398438 C 20.5 13.601562 20.300781 14.398438 20.300781 14.398438 Z M 20.300781 14.398438 "/>
</g>
</svg>
