<?xml version="1.0" encoding="UTF-8"?>
<svg xmlns="http://www.w3.org/2000/svg" xmlns:xlink="http://www.w3.org/1999/xlink" width="20pt" height="13pt" viewBox="0 0 20 13" version="1.1">
<g id="surface1">
<path style=" stroke:none;fill-rule:nonzero;fill:rgb(12.156863%,50.980392%,14.901961%);fill-opacity:1;" d="M 0 6.5 L 0 13 L 20 13 L 20 0 L 0 0 Z M 4.4375 4.757812 C 6.679688 4.863281 8.59375 5.074219 9.28125 5.292969 C 9.875 5.480469 11.324219 6.863281 12.273438 8.136719 L 12.449219 8.375 L 10.851562 8.375 C 9.382812 8.375 9.242188 8.367188 9.144531 8.261719 C 9.082031 8.199219 8.8125 7.886719 8.542969 7.574219 C 7.988281 6.929688 7.074219 6.113281 6.636719 5.863281 C 6.226562 5.625 4.625 5.230469 2.9375 4.957031 C 2.148438 4.832031 1.539062 4.707031 1.574219 4.679688 C 1.648438 4.632812 2.226562 4.648438 4.4375 4.757812 Z M 18.375 4.863281 C 18.375 4.886719 18.019531 4.976562 17.582031 5.042969 C 16.613281 5.210938 15.117188 5.613281 14.667969 5.832031 C 14.3125 6.011719 13.832031 6.511719 13.144531 7.417969 C 12.917969 7.71875 12.710938 7.976562 12.6875 7.988281 C 12.664062 8 12.457031 7.789062 12.230469 7.519531 C 12 7.25 11.648438 6.84375 11.4375 6.617188 L 11.0625 6.199219 L 11.382812 5.914062 C 11.855469 5.488281 12.375 5.367188 14.71875 5.148438 C 15.335938 5.09375 16.335938 5 16.9375 4.9375 C 18.257812 4.804688 18.375 4.800781 18.375 4.863281 Z M 18.375 4.863281 "/>
</g>
</svg>
